<?xml version="1.0" encoding="UTF-8"?>
<svg version="1.1" xmlns="http://www.w3.org/2000/svg" width="512" height="512">
<path d="M0 0 C0.68688432 -0.00350607 1.37376863 -0.00701215 2.08146763 -0.01062447 C4.37610601 -0.01990575 6.67048877 -0.0150237 8.96513748 -0.01015663 C10.62976069 -0.01389454 12.29438215 -0.01849663 13.95900083 -0.02388728 C18.52820461 -0.03611527 23.09733517 -0.03585704 27.66655159 -0.03349853 C32.59648516 -0.03309031 37.52639527 -0.04412998 42.4563179 -0.05361366 C52.11318313 -0.07022358 61.77002394 -0.07572321 71.42690226 -0.07683842 C79.27704558 -0.0777889 87.12718085 -0.08189923 94.97732162 -0.08823967 C117.23660785 -0.10585212 139.4958748 -0.11507854 161.75516805 -0.11357872 C163.5550157 -0.11345885 163.5550157 -0.11345885 165.39122391 -0.11333656 C166.59258835 -0.1132548 167.79395279 -0.11317304 169.03172222 -0.1130888 C188.50105691 -0.11227592 207.97031423 -0.13141416 227.43962654 -0.1596133 C247.43321619 -0.18834315 267.42676811 -0.20215353 287.42037892 -0.20042574 C298.64420161 -0.19976187 309.86794319 -0.20525287 321.09174728 -0.22678185 C330.64808313 -0.24499495 340.2043011 -0.24933987 349.76064679 -0.235763 C354.63493208 -0.22923403 359.50899124 -0.22911369 364.383255 -0.2464695 C368.84937698 -0.26220826 373.31509367 -0.25932837 377.7812058 -0.24190123 C379.39289271 -0.23883311 381.00460993 -0.24245663 382.61626109 -0.25362138 C394.91245635 -0.33313073 405.14561871 1.10988957 414.85216141 9.19867516 C421.16359418 15.6697356 425.10419925 23.97407739 425.11724281 33.0432682 C425.12369171 34.18115107 425.1301406 35.31903393 425.13678491 36.4913981 C425.13213911 38.35178802 425.13213911 38.35178802 425.12739944 40.24976158 C425.13113781 41.58837571 425.13574008 42.92698766 425.14113009 44.26559615 C425.15335263 47.93827053 425.15310051 51.61085376 425.15074134 55.28354383 C425.15033298 59.2468711 425.16137418 63.21016922 425.17085648 67.17348289 C425.18746363 74.9364893 425.1929659 82.69946534 425.19408123 90.46248803 C425.19503189 96.77376286 425.1991431 103.08502769 425.20548248 109.39629936 C425.22309455 127.29489566 425.23232147 145.19346797 425.23082153 163.09207299 C425.23074162 164.0568269 425.23066171 165.02158081 425.23057938 166.01556969 C425.23049761 166.98150337 425.23041585 167.94743706 425.23033161 168.94264147 C425.22951885 184.59423955 425.24865424 200.24574136 425.27685611 215.8973116 C425.3055935 231.97311311 425.31939592 248.04886769 425.31766856 264.12469554 C425.31700492 273.14806671 425.32248544 282.17133697 425.34402466 291.19468498 C425.36224776 298.87800693 425.36657458 306.56118224 425.35300581 314.24451646 C425.34648167 318.16276526 425.34633865 322.08073283 425.36371231 325.99895477 C425.37947313 329.59046458 425.37654929 333.18147087 425.35914405 336.77296862 C425.35463665 338.67804956 425.36970797 340.5831463 425.38562334 342.48816609 C425.29454574 353.85915049 422.03216405 363.14710677 413.85997391 371.25726891 C405.46556362 377.46993072 398.02307912 379.56297463 387.72374344 379.48431969 C386.21550255 379.48475777 386.21550255 379.48475777 384.67679214 379.4852047 C381.36536801 379.48381542 378.05417107 379.46827296 374.74278641 379.45258141 C372.44207762 379.44884985 370.14136723 379.44600355 367.84065628 379.44400597 C361.79409245 379.43638075 355.74762516 379.4167417 349.7010994 379.39459801 C343.52750835 379.3741157 337.35390166 379.36499914 331.18028641 379.35492516 C319.07347323 379.33349484 306.96673161 379.29937223 294.85997391 379.25726891 C294.88092117 380.21504234 294.90186844 381.17281578 294.92345047 382.15961266 C294.99636869 385.74523267 295.04195948 389.33078844 295.07970047 392.91693687 C295.09969894 394.46294778 295.12690722 396.00888418 295.16173172 397.55463219 C295.51255694 413.53781627 295.51255694 413.53781627 290.85997391 420.25726891 C285.66815728 425.31596203 280.91434815 426.50562381 273.78274918 426.52469444 C273.08175057 426.52922556 272.38075197 426.53375667 271.65851098 426.53842509 C269.31568567 426.55105896 266.97309313 426.54944939 264.63023758 426.54779625 C262.94791745 426.55378217 261.26560006 426.56058786 259.58328629 426.56815147 C255.01706044 426.58581296 250.45090956 426.59050694 245.88465285 426.59178305 C243.03035755 426.5932052 240.17608127 426.59747604 237.3217907 426.60277748 C227.35981538 426.62127876 217.39789357 426.62944803 207.43590164 426.62787437 C198.15697112 426.62667318 188.8782733 426.64777093 179.59940165 426.6793617 C171.62725615 426.70553419 163.6551866 426.71624125 155.68299848 426.71496356 C150.9241447 426.71445418 146.16549769 426.72012393 141.40668678 426.74131966 C136.92913369 426.76071825 132.45198426 426.76081549 127.97441673 426.74628639 C126.33457091 426.74419915 124.69469972 426.74889417 123.05489731 426.76100731 C107.66793875 426.86727409 107.66793875 426.86727409 100.85997391 422.25726891 C99.02013016 420.44086266 99.02013016 420.44086266 97.92247391 418.69476891 C97.35206375 417.82658531 97.35206375 417.82658531 96.77013016 416.94086266 C94.60228206 412.93080887 94.7300211 409.16551543 94.76231766 404.74555016 C94.76444008 403.6532132 94.76444008 403.6532132 94.76660538 402.53880882 C94.77219732 400.21575352 94.78474829 397.89279502 94.79747391 395.56976891 C94.80248995 393.99359842 94.80705268 392.41742643 94.81114578 390.84125328 C94.82216411 386.97988792 94.83942317 383.11859482 94.85997391 379.25726891 C93.5962294 379.26837196 92.33248489 379.27947502 91.0304451 379.29091454 C79.08475329 379.39254594 67.13914992 379.46735678 55.19312286 379.51632977 C49.05242938 379.54235429 42.91208666 379.5776221 36.771595 379.63446617 C30.83877774 379.68904018 24.90629656 379.71874311 18.97324753 379.73165512 C16.71674947 379.74084948 14.46026851 379.75880343 12.20391464 379.78591919 C-2.43495317 379.95474644 -15.11663199 380.05976226 -26.38611984 369.35492516 C-32.01392765 362.62411716 -35.25625227 355.45738386 -35.27704048 346.72295189 C-35.28211502 345.59028452 -35.28718957 344.45761715 -35.29241788 343.29062653 C-35.29291564 342.04590513 -35.2934134 340.80118374 -35.29392624 339.51874352 C-35.29794221 338.18328219 -35.30238066 336.84782208 -35.3072058 335.51236343 C-35.31916234 331.83905757 -35.32481762 328.16576483 -35.32938695 324.49244332 C-35.33534661 320.53177483 -35.34695563 316.57112201 -35.35767746 312.6104641 C-35.38219438 303.04284516 -35.39682823 293.47522105 -35.40973753 283.90758038 C-35.41345019 281.20452974 -35.41742336 278.50147961 -35.42149019 275.79842949 C-35.44672908 259.00771661 -35.46877911 242.21700291 -35.48121834 225.42627525 C-35.48414797 221.53742024 -35.48710964 217.64856526 -35.49012375 213.75971031 C-35.4908698 212.79317024 -35.49161585 211.82663017 -35.49238451 210.83080101 C-35.50503272 195.18041265 -35.53824892 179.53013803 -35.57992558 163.87980282 C-35.62237759 147.8063211 -35.6459172 131.73289756 -35.6511389 115.65935993 C-35.65454947 106.63697679 -35.66626271 97.61477136 -35.69924164 88.59244347 C-35.72728832 80.90692349 -35.7382213 73.22161767 -35.72704618 65.5360505 C-35.72187115 61.61749927 -35.72467021 57.69939617 -35.74951172 53.78091049 C-35.7721065 50.18666985 -35.77118648 46.59319655 -35.75230785 42.99894154 C-35.74821204 41.0972099 -35.76857798 39.19547285 -35.79009473 37.29385853 C-35.69707866 27.14465584 -33.09806735 17.33336781 -25.93690109 9.78461266 C-18.25624489 3.25605488 -10.10661718 0.01168414 0 0 Z M-17.67127609 18.51117516 C-29.49521861 32.56783022 -24.14002609 54.06314124 -24.14002609 70.25726891 C120.39997391 70.25726891 264.93997391 70.25726891 413.85997391 70.25726891 C416.66408998 42.74273185 416.66408998 42.74273185 406.60216141 17.76117516 C400.27062328 12.29560973 393.27337979 11.13438539 385.11942387 11.12584114 C384.45143138 11.12378851 383.78343889 11.12173587 383.0952042 11.11962104 C380.85286055 11.11395858 378.61057846 11.11540735 376.36822891 11.11682701 C374.7458685 11.11424294 373.12350873 11.11122967 371.50114983 11.10782361 C367.03952944 11.09975526 362.57792514 11.09796413 358.11629832 11.09722614 C353.30564799 11.0953753 348.49500601 11.08782782 343.6843605 11.08109093 C333.16366066 11.06750829 322.64296463 11.06148301 312.12225747 11.05708027 C305.55325823 11.05431775 298.98426047 11.05008038 292.41526222 11.0455761 C274.22810108 11.03338357 256.04094112 11.02308419 237.85377598 11.019701 C236.68972837 11.01948144 235.52568076 11.01926187 234.32635899 11.01903565 C233.15952457 11.01881737 231.99269016 11.0185991 230.79049712 11.0183742 C228.42604212 11.01793074 226.06158711 11.01748417 223.69713211 11.01703453 C222.5242805 11.0168131 221.35142889 11.01659167 220.14303633 11.01636353 C201.13850436 11.01241549 182.13401073 10.9949612 163.12949357 10.97167501 C143.61849135 10.94796117 124.10750838 10.93549914 104.59649152 10.93433309 C93.64152036 10.93341635 82.68659916 10.92766435 71.73164177 10.90951347 C62.4032508 10.89411207 53.07492522 10.88899228 43.74652395 10.89725158 C38.9878499 10.90115791 34.22930756 10.90022924 29.47064972 10.88619423 C25.11126938 10.87345451 20.7521197 10.87465347 16.39273968 10.88678494 C14.8186952 10.88874181 13.24463437 10.88566397 11.67061285 10.87694058 C0.99874097 10.82155752 -9.48816238 10.77195676 -17.67127609 18.51117516 Z M-24.14002609 82.25726891 C-24.20190109 125.79664391 -24.26377609 169.33601891 -24.32752609 214.19476891 C-24.3548381 227.94769615 -24.38215012 241.7006234 -24.41028976 255.87030602 C-24.42032242 268.18720705 -24.42032242 268.18720705 -24.42635727 280.50411034 C-24.42915472 285.99458773 -24.44015858 291.48497635 -24.45675278 296.97542381 C-24.47586902 303.30970788 -24.4845292 309.6439041 -24.48036094 315.97821722 C-24.47855615 319.21748905 -24.48306886 322.45652527 -24.49767148 325.69577014 C-24.51260109 329.16885753 -24.50899324 332.64145472 -24.50078964 336.11455345 C-24.50952764 337.11914887 -24.51826563 338.1237443 -24.52726841 339.15878201 C-24.47226649 347.82732028 -22.92707847 355.26046199 -16.88611984 361.75336266 C-11.78524827 366.14673079 -5.63336582 368.38610652 1.06145096 368.37752342 C1.89153671 368.37889809 2.72162247 368.38027275 3.57686234 368.38168907 C4.47885361 368.3780938 5.38084488 368.37449852 6.31016922 368.3707943 C7.74482025 368.37101334 7.74482025 368.37101334 9.20845413 368.3712368 C12.36835883 368.37054039 15.52820451 368.36276064 18.68809891 368.35492516 C20.87956586 368.35306001 23.07103324 368.35163656 25.26250076 368.35063744 C31.02958198 368.34681984 36.796638 368.336996 42.56370926 368.32593346 C48.44891901 368.31570307 54.33413283 368.31113632 60.21934891 368.30609703 C71.76623498 368.29537308 83.31310235 368.27830572 94.85997391 368.25726891 C94.87455643 367.59195152 94.88913895 366.92663414 94.90416336 366.24115562 C94.97898756 363.20429777 95.07553406 360.168498 95.17247391 357.13226891 C95.1950325 356.08555016 95.21759109 355.03883141 95.24083328 353.96039391 C95.49641423 346.61825025 96.23059708 341.82821514 101.67247391 336.50726891 C106.56551794 333.05335547 110.92896797 332.01619038 116.865345 331.93842125 C118.02609543 331.91855156 119.18684586 331.89868187 120.38277054 331.87821007 C121.62048203 331.86665886 122.85819351 331.85510765 124.13341141 331.84320641 C126.05173279 331.81415718 126.05173279 331.81415718 128.00880814 331.7845211 C131.39204552 331.73498611 134.77517773 331.69366655 138.15855789 331.65637779 C141.61772125 331.61621408 145.07672531 331.56528269 148.53575516 331.51508141 C155.31043286 331.41754555 162.08498898 331.33787298 168.85997391 331.25726891 C168.85997391 318.38726891 168.85997391 305.51726891 168.85997391 292.25726891 C165.59058914 292.23744957 162.32120438 292.21763023 158.95274734 292.19721031 C148.12011816 292.13014031 137.28758296 292.0525035 126.45506287 291.96974182 C119.89083573 291.91991197 113.32662366 291.87358109 106.76231766 291.83539391 C100.42097151 291.79837258 94.0797556 291.75196769 87.73852158 291.6992054 C85.32579979 291.68075068 82.91305017 291.66561024 80.5002861 291.65392494 C77.10670158 291.63690903 73.71340958 291.60783826 70.31993484 291.57611656 C68.84177795 291.57287628 68.84177795 291.57287628 67.33375931 291.56957054 C54.00401116 291.41161082 41.58742105 289.34742678 31.45372391 280.05023766 C24.25021199 271.94628674 20.2763357 262.21492273 20.42247391 251.44476891 C20.43004715 250.65795738 20.43762039 249.87114586 20.44542313 249.06049156 C20.79061369 236.79236868 25.77230977 227.91425014 34.54747391 219.56976891 C39.12335329 215.69582053 44.32948043 213.46336649 49.85997391 211.25726891 C49.70013016 210.39617516 49.54028641 209.53508141 49.37559891 208.64789391 C47.45577697 196.02361027 49.27182934 185.33969823 56.13731766 174.57758141 C62.83595741 165.55492377 72.23682885 161.13084915 82.85997391 158.25726891 C83.00692703 157.22988609 83.15388016 156.20250328 83.30528641 155.14398766 C85.18951664 143.09045603 88.59706238 131.85942559 98.85997391 124.25726891 C110.48193749 117.24513445 120.40574895 115.02720527 133.85997391 117.25726891 C143.02226839 119.73988333 149.26875335 124.56397192 155.85997391 131.25726891 C156.82934891 130.39101891 157.79872391 129.52476891 158.79747391 128.63226891 C168.48660485 120.36915925 178.42840265 114.79626564 191.53184891 115.04633141 C203.04606258 116.08956553 213.26038753 120.70087516 221.25450516 129.11273766 C224.4878632 133.43174877 226.66128963 138.35251168 228.85997391 143.25726891 C229.56122391 142.84734703 230.26247391 142.43742516 230.98497391 142.01508141 C242.54492367 135.44978385 253.81720156 132.83892738 267.10997391 136.38226891 C277.17222956 139.93462517 285.41193527 145.63248401 290.39903641 155.21430016 C291.62091797 157.87308713 292.77596228 160.53974667 293.85997391 163.25726891 C294.73138016 163.28305016 295.60278641 163.30883141 296.50059891 163.33539391 C310.93732056 164.02285684 321.45821777 167.44660054 331.54747391 177.88226891 C339.98649967 188.00137532 341.09371926 199.63502007 340.85997391 212.25726891 C341.46583328 212.44160484 342.07169266 212.62594078 342.69591141 212.81586266 C353.15984324 216.43799291 360.20003061 223.199111 365.70372391 232.70258141 C370.01301339 242.22378182 370.4966759 253.66662068 367.98497391 263.78070641 C363.96193435 274.07651159 357.71792081 282.10462775 347.85997391 287.25726891 C338.82368404 291.18274406 329.56165734 291.40670966 319.85411453 291.46259117 C318.78005356 291.47249077 317.70599258 291.48239037 316.59938431 291.49258995 C313.07168611 291.52401721 309.54397448 291.54888774 306.01622391 291.57367516 C303.56142718 291.59426091 301.10663387 291.6152578 298.65184402 291.63664818 C292.20753632 291.69170136 285.76319752 291.74118422 279.31883621 291.78949547 C272.73616663 291.83983317 266.15354192 291.89545506 259.57091141 291.95062828 C246.66730257 292.05800482 233.76365537 292.1590063 220.85997391 292.25726891 C220.85997391 305.12726891 220.85997391 317.99726891 220.85997391 331.25726891 C224.95403641 331.29465172 229.04809891 331.33203453 233.26622391 331.37055016 C236.54817739 331.4087057 239.83006579 331.44977807 243.11195755 331.4928112 C246.5666771 331.53731569 250.02127975 331.57678205 253.47618484 331.60370445 C257.44811624 331.63489428 261.41956013 331.68967767 265.39122391 331.74555016 C266.61861282 331.75194008 267.84600174 331.75833 269.11058426 331.76491356 C276.39861185 331.88921173 283.07685124 332.09868451 288.91856766 336.97601891 C289.37360672 337.56383141 289.82864578 338.15164391 290.29747391 338.75726891 C290.77055984 339.34508141 291.24364578 339.93289391 291.73106766 340.53851891 C293.87155594 343.79739381 294.02979547 346.79122649 294.17638016 350.58148766 C294.21827469 351.609515 294.26016922 352.63754234 294.30333328 353.69672203 C294.36230789 355.30450523 294.36230789 355.30450523 294.42247391 356.94476891 C294.4656575 358.02822594 294.50884109 359.11168297 294.55333328 360.22797203 C294.65944228 362.90427682 294.76149751 365.58067417 294.85997391 368.25726891 C307.48211498 368.32689052 320.10421008 368.380142 332.72650433 368.41270542 C338.58803928 368.42833707 344.44944249 368.44952983 350.31090164 368.48358727 C355.97136155 368.51626964 361.63169504 368.53414072 367.29224205 368.54190063 C369.44791592 368.54742819 371.60358315 368.55822211 373.75920296 368.57445908 C376.78700266 368.59635115 379.81428507 368.59923089 382.84215164 368.59784508 C383.72616653 368.60863091 384.61018143 368.61941673 385.52098465 368.6305294 C393.87194616 368.58938127 401.12786932 366.79804371 407.35606766 361.00336266 C411.89784453 355.73018276 413.98627776 349.51622306 413.98302174 342.62647438 C413.98501261 341.69511917 413.98700348 340.76376396 413.98905468 339.80418587 C413.98614202 338.78502712 413.98322935 337.76586838 413.98022842 336.71582603 C413.98108444 335.63288765 413.98194046 334.54994926 413.98282242 333.43419456 C413.98448203 329.78177831 413.97894677 326.12940756 413.9734993 322.47699547 C413.97319308 319.82324562 413.97328182 317.1694985 413.97386456 314.51574898 C413.97439649 308.11793153 413.96977646 301.7201281 413.96336323 295.32231425 C413.95616776 287.92286415 413.95536872 280.52342249 413.9545784 273.12396812 C413.94932646 253.58506616 413.93536537 234.04616732 413.92247391 214.50726891 C413.90184891 170.86476891 413.88122391 127.22226891 413.85997391 82.25726891 C269.31997391 82.25726891 124.77997391 82.25726891 -24.14002609 82.25726891 Z M167.85997391 135.25726891 C166.25176184 137.74232021 164.76953617 140.25640476 163.35216141 142.85492516 C161.72467294 145.47509638 160.31869098 147.37945752 157.85997391 149.25726891 C155.26622391 149.27289391 155.26622391 149.27289391 152.85997391 148.25726891 C151.45372391 146.36664391 151.45372391 146.36664391 150.35997391 144.00726891 C148.33484381 140.0139655 146.26657464 137.23804455 142.85997391 134.25726891 C142.09684891 133.55601891 141.33372391 132.85476891 140.54747391 132.13226891 C133.41766136 127.15798108 126.37798666 126.26935506 117.85997391 127.25726891 C109.16644685 129.52833075 103.27105545 133.69946961 98.54747391 141.38226891 C96.19645598 145.44255708 94.77357627 148.7439947 94.57872391 153.45258141 C94.54134109 154.25051109 94.50395828 155.04844078 94.46544266 155.87055016 C94.39480268 157.5528281 94.3244932 159.23511996 94.25450516 160.91742516 C93.96128396 167.15595885 93.96128396 167.15595885 92.85997391 168.25726891 C90.8630368 168.5306591 88.86217231 168.77553298 86.85997391 169.00726891 C77.19137106 170.4565015 69.93028752 174.51997798 63.85997391 182.25726891 C58.86599129 189.52661639 59.011947 197.71917984 59.85997391 206.25726891 C60.50079131 208.47905273 60.50079131 208.47905273 61.42247391 210.25726891 C63.22287166 214.01462074 62.75666162 216.26293273 61.85997391 220.25726891 C61.10973953 220.40422203 60.35950516 220.55117516 59.58653641 220.70258141 C49.72010258 222.864747 41.99287373 225.87425739 35.85997391 234.19476891 C31.61312451 240.88980207 29.87069243 247.38058475 30.85997391 255.25726891 C32.9196249 263.90286979 36.7270871 270.78043173 44.17247391 275.82367516 C49.38469187 278.8327023 53.61890617 280.38418638 59.66887283 280.37752342 C60.63358505 280.37889809 61.59829727 280.38027275 62.59224319 280.38168907 C63.64384628 280.3780938 64.69544937 280.37449852 65.77891922 280.3707943 C66.89141037 280.37094032 68.00390152 280.37108635 69.15010452 280.3712368 C72.82945578 280.3705398 76.50875649 280.3627573 80.18809891 280.35492516 C82.73828987 280.35306022 85.28848119 280.35163667 87.83867264 280.35063744 C93.8663472 280.34720863 99.89400005 280.33932607 105.92166591 280.32928795 C112.7849871 280.31810653 119.64830917 280.31261124 126.51163721 280.30759251 C140.62776134 280.29714292 154.74386256 280.27880555 168.85997391 280.25726891 C168.85997391 272.00726891 168.85997391 263.75726891 168.85997391 255.25726891 C160.44497391 254.76226891 160.44497391 254.76226891 151.85997391 254.25726891 C151.85997391 246.36864905 151.85997391 246.36864905 154.54747391 242.44476891 C155.18555984 241.50375328 155.82364578 240.56273766 156.48106766 239.59320641 C157.27070921 238.47886206 158.06400465 237.36710225 158.85997391 236.25726891 C159.33193192 235.59759117 159.80388992 234.93791344 160.29014969 234.25824547 C162.45312121 231.24419018 164.62428692 228.23635842 166.80894852 225.2379818 C170.49616732 220.17563548 174.08551501 215.05895502 177.60997391 209.88226891 C178.93457371 207.95538305 180.26157126 206.030181 181.58995438 204.10590172 C182.43577085 202.87473633 183.27596922 201.63969211 184.11046219 200.40082359 C185.27907919 198.67240963 186.47193145 196.96360021 187.67247391 195.25726891 C188.67214188 193.80320641 188.67214188 193.80320641 189.69200516 192.31976891 C191.85997391 190.25726891 191.85997391 190.25726891 194.68419266 189.38226891 C199.89677816 190.81845483 201.91844238 194.92758114 204.85997391 199.25726891 C205.46341629 200.10756676 206.06685867 200.95786461 206.68858719 201.83392906 C208.62220107 204.56430336 210.5248196 207.31429667 212.42247391 210.06976891 C213.82317684 212.09474284 215.22422562 214.11947758 216.62559891 216.14398766 C217.32749344 217.15896324 218.02938797 218.17393883 218.75255203 219.21967125 C220.79415913 222.16240474 222.84742779 225.09651217 224.90684891 228.02680016 C225.54163162 228.93003014 226.17641434 229.83326012 226.83043289 230.7638607 C228.02927799 232.46798445 229.22925192 234.17131482 230.43053055 235.87372398 C231.47977738 237.36690099 232.52276827 238.8645053 233.55772781 240.36762047 C234.60201767 241.88295671 235.67050352 243.38160606 236.74669266 244.87445641 C237.85997391 247.25726891 237.85997391 247.25726891 237.85997391 254.25726891 C232.24997391 254.58726891 226.63997391 254.91726891 220.85997391 255.25726891 C220.85997391 263.50726891 220.85997391 271.75726891 220.85997391 280.25726891 C235.55100688 280.34775236 250.24186542 280.42135698 264.93311501 280.46451759 C271.75535344 280.48509533 278.57740576 280.51312339 285.39952469 280.55902672 C291.98716295 280.60333098 298.57465915 280.6264284 305.1624527 280.63677788 C307.67177874 280.64415043 310.18109459 280.65854721 312.69033813 280.68018913 C316.21374708 280.70936075 319.73636536 280.71321901 323.25987625 280.71137047 C324.8049234 280.73294212 324.8049234 280.73294212 326.38118362 280.75494957 C336.02778995 280.70043205 343.99446137 277.98534544 351.10216141 271.32367516 C356.58563582 264.87754635 359.2518596 257.20823547 359.14122391 248.82758141 C358.3268689 241.38528145 355.34013751 234.38003054 349.85997391 229.25726891 C344.19232319 225.15554664 338.5592239 222.54178723 331.79356766 220.80023766 C329.85997391 220.25726891 329.85997391 220.25726891 328.85997391 219.25726891 C328.95287571 217.77383686 329.11113455 216.29438039 329.29747391 214.81976891 C330.46706203 203.6928765 330.36230659 193.85026902 323.35997391 184.44476891 C317.44724582 178.24834932 308.88208759 174.61657933 300.39513016 174.20258141 C295.85513254 174.30051664 291.36510929 174.70055066 286.85997391 175.25726891 C284.97363917 172.4277668 284.39740738 170.78512226 283.60997391 167.56976891 C281.02222611 158.72507867 275.53492433 153.12235254 267.85997391 148.25726891 C260.49141526 144.28958348 252.63468641 144.93400886 244.80138016 147.10492516 C238.61902875 149.52696189 233.51519727 153.71180542 229.85997391 159.25726891 C229.85997391 159.91726891 229.85997391 160.57726891 229.85997391 161.25726891 C227.21997391 161.25726891 224.57997391 161.25726891 221.85997391 161.25726891 C219.99754904 158.03618983 219.51749421 155.30965452 219.10997391 151.63226891 C217.81242297 143.44771686 214.50649284 137.04468663 207.98497391 131.81976891 C195.17846092 123.29014799 178.86958824 123.74721756 167.85997391 135.25726891 Z M193.85997391 206.25726891 C192.12442939 208.38767275 190.51372195 210.52196398 188.92247391 212.75726891 C188.199189 213.75983727 188.199189 213.75983727 187.46129227 214.78265953 C183.90120705 219.74083489 180.39718813 224.73896259 176.92247391 229.75726891 C176.25067093 230.72503258 176.25067093 230.72503258 175.56529617 231.71234703 C172.77210026 235.78551641 170.25822474 239.93930452 167.85997391 244.25726891 C168.92538406 244.34814781 168.92538406 244.34814781 170.01231766 244.44086266 C170.93141922 244.52465172 171.85052078 244.60844078 172.79747391 244.69476891 C173.71399734 244.77597984 174.63052078 244.85719078 175.57481766 244.94086266 C177.85997391 245.25726891 177.85997391 245.25726891 178.85997391 246.25726891 C178.98507225 248.90378234 179.04603386 251.5254911 179.06529617 254.17352867 C179.07519577 255.0027282 179.08509537 255.83192772 179.09529495 256.6862545 C179.12700511 259.44036519 179.15170479 262.19449317 179.17638016 264.94867516 C179.19694148 266.85297163 179.21793772 268.75726346 179.23935318 270.66155052 C179.29465876 275.68389697 179.34403047 280.70628517 179.39220047 285.72870445 C179.4423537 290.84959206 179.49807194 295.9704187 179.55333328 301.09125328 C179.6610186 311.14654178 179.7619264 321.2018818 179.85997391 331.25726891 C189.75997391 331.25726891 199.65997391 331.25726891 209.85997391 331.25726891 C209.88503006 328.68760338 209.91008621 326.11793785 209.93590164 323.47040367 C210.01920519 315.00062348 210.10791267 306.53090618 210.19931316 298.06120968 C210.25458699 292.92370422 210.30801398 287.78619311 210.35728836 282.64862633 C210.40486631 277.69490428 210.45720646 272.74125378 210.51291466 267.78761673 C210.53336808 265.8933133 210.55207611 263.99899023 210.56904793 262.1046524 C210.59302607 259.4608719 210.6230892 256.81722793 210.65465164 254.17352867 C210.6604071 253.38231117 210.66616257 252.59109367 210.67209244 251.77589989 C210.74592175 246.37132107 210.74592175 246.37132107 211.85997391 245.25726891 C213.54181338 245.02439882 215.23121551 244.84462724 216.92247391 244.69476891 C217.84157547 244.61097984 218.76067703 244.52719078 219.70763016 244.44086266 C220.41790359 244.38027672 221.12817703 244.31969078 221.85997391 244.25726891 C218.65490688 238.38660158 214.97163973 232.96401554 211.10997391 227.50726891 C210.48961258 226.62780602 209.86925125 225.74834312 209.23009109 224.84222984 C208.00160418 223.10310294 206.77150976 221.36511022 205.53966141 219.62836266 C204.09768249 217.59282497 202.66457207 215.55150322 201.23497391 213.50726891 C200.53372391 212.51726891 199.83247391 211.52726891 199.10997391 210.50726891 C198.51700516 209.66680016 197.92403641 208.82633141 197.31309891 207.96039391 C196.83356766 207.39836266 196.35403641 206.83633141 195.85997391 206.25726891 C195.19997391 206.25726891 194.53997391 206.25726891 193.85997391 206.25726891 Z M106.85997391 347.25726891 C105.82790849 350.35346517 105.72719717 352.50501188 105.71471024 355.75092125 C105.70833038 356.87573906 105.70195053 358.00055687 105.69537735 359.15946007 C105.69426453 360.37509636 105.6931517 361.59073265 105.69200516 362.84320641 C105.68867676 364.09227776 105.68534836 365.34134911 105.6819191 366.6282711 C105.67685203 369.27286906 105.67407862 371.91736427 105.67467117 374.56195641 C105.6747727 377.94353004 105.66112803 381.32489327 105.64389896 384.70641708 C105.63007617 387.93950559 105.63068941 391.17259236 105.62950516 394.40570641 C105.62231964 395.61729424 105.61513412 396.82888206 105.60773087 398.07718468 C105.6108075 399.20830681 105.61388412 400.33942894 105.61705399 401.5048275 C105.61562897 402.4972747 105.61420395 403.48972191 105.61273575 404.51224327 C105.88702323 407.55759097 106.36901262 409.58181226 107.85997391 412.25726891 C111.82228489 415.23696144 114.75376248 415.63359476 119.65367508 415.63821983 C120.32412196 415.64289981 120.99456884 415.64757978 121.6853323 415.65240157 C123.92473888 415.66433723 126.16353188 415.6549004 128.40294266 415.6454525 C130.0113142 415.64951885 131.61968295 415.65486109 133.22804642 415.66138268 C137.59165298 415.67505455 141.95504666 415.66975818 146.31865692 415.66024542 C150.88606463 415.65264816 155.45345415 415.65969462 160.02086258 415.66440392 C167.69089911 415.66986127 175.36084897 415.66267038 183.03087234 415.64838219 C191.897441 415.6320557 200.76380269 415.63734423 209.63036633 415.6538614 C217.24408839 415.66747683 224.85774816 415.66939565 232.47147846 415.6615454 C237.01835968 415.65686919 241.56514363 415.65624258 246.11201859 415.66615486 C250.38679946 415.67482308 254.6613136 415.66880533 258.93606567 415.65147209 C260.50459602 415.64750647 262.07314883 415.64864261 263.64167023 415.65526009 C265.78350709 415.66346298 267.92449021 415.65317028 270.06627274 415.63821983 C271.86370674 415.63652322 271.86370674 415.63652322 273.69745255 415.63479233 C277.18910759 415.21797884 279.06636129 414.35845176 281.85997391 412.25726891 C283.84422566 408.68661616 284.11570027 405.59323527 284.13463211 401.55243492 C284.14416412 400.43099586 284.15369614 399.30955681 284.163517 398.15413475 C284.16260559 396.95195808 284.16169418 395.74978142 284.16075516 394.51117516 C284.16718285 392.64537048 284.16718285 392.64537048 284.17374039 390.74187279 C284.18094629 387.44140038 284.17786436 384.14111074 284.17216873 380.84064293 C284.17247341 378.82307273 284.18251124 376.80579613 284.19615555 374.78827477 C284.22065912 370.90410169 284.22481064 367.02041591 284.22325516 363.13617516 C284.23706978 361.3359465 284.23706978 361.3359465 284.25116348 359.49934959 C284.26675237 351.43985003 284.26675237 351.43985003 280.85997391 344.25726891 C277.97769019 342.81612705 275.49059092 343.12127598 272.26845169 343.11009789 C271.58352831 343.1064212 270.89860492 343.10274451 270.19292629 343.09895641 C267.88678493 343.08790083 265.5806886 343.0840726 263.27452469 343.08026695 C261.62556693 343.0740038 259.97661058 343.06735714 258.32765579 343.06035423 C253.84005038 343.04293278 249.35245563 343.03238974 244.86482477 343.0241487 C242.06301341 343.01900185 239.26120538 343.01292603 236.45939636 343.00663757 C227.69857623 342.98758383 218.93776456 342.97335208 210.17692769 342.9650256 C200.05365844 342.95524609 189.93060744 342.92890878 179.80741513 342.88852471 C171.98911605 342.85840221 164.17087968 342.84356048 156.35252368 342.84024459 C151.67981028 342.83789002 147.00732997 342.82887677 142.33467865 342.80378342 C137.9400918 342.78056461 133.54589258 342.77624431 129.15126038 342.7865448 C127.53714334 342.78704176 125.92300761 342.78067437 124.30894852 342.76698875 C122.10731823 342.74936351 119.90709328 342.75632792 117.70546341 342.76952171 C116.47285845 342.76713336 115.24025349 342.76474501 113.97029686 342.76228428 C110.25364618 343.35376143 109.10598389 344.29354055 106.85997391 347.25726891 Z " fill="#000000" transform="translate(61.1400260925293,42.74273109436035)"/>
<path d="M0 0 C1.14533203 -0.02449219 2.29066406 -0.04898438 3.47070312 -0.07421875 C4.57220703 -0.07808594 5.67371094 -0.08195312 6.80859375 -0.0859375 C7.81591553 -0.09415527 8.8232373 -0.10237305 9.86108398 -0.11083984 C13.34291699 0.51535516 14.39524503 1.61782221 16.5625 4.375 C18.61966825 8.01276824 20.21169018 11.85590429 21.875 15.6875 C22.34228516 16.70779297 22.80957031 17.72808594 23.29101562 18.77929688 C25.77064104 24.44544239 27.38624459 28.33748937 25.5625 34.375 C23.9683259 35.9691741 22.29940869 35.51820702 20.09033203 35.53613281 C19.13909454 35.54574036 18.18785706 35.5553479 17.20779419 35.56524658 C16.17242523 35.56949646 15.13705627 35.57374634 14.0703125 35.578125 C12.48499222 35.58667511 12.48499222 35.58667511 10.86764526 35.59539795 C8.62645474 35.60486448 6.38525019 35.61138846 4.14404297 35.61523438 C0.70906359 35.62493908 -2.7253175 35.65594701 -6.16015625 35.6875 C-8.33332976 35.69402972 -10.50650758 35.69928031 -12.6796875 35.703125 C-13.711008 35.7154718 -14.74232849 35.7278186 -15.80490112 35.74053955 C-16.76244293 35.73753845 -17.71998474 35.73453735 -18.70654297 35.73144531 C-19.54957977 35.73509094 -20.39261658 35.73873657 -21.26119995 35.74249268 C-23.94776513 35.28883601 -24.85146409 34.56474036 -26.4375 32.375 C-26.41960046 25.61792421 -23.25022515 19.64224088 -20.5625 13.5625 C-19.89154297 11.98952148 -19.89154297 11.98952148 -19.20703125 10.38476562 C-18.77003906 9.38509766 -18.33304688 8.38542969 -17.8828125 7.35546875 C-17.28750732 5.99264771 -17.28750732 5.99264771 -16.68017578 4.60229492 C-13.23183938 -1.57828916 -6.15259297 0.00690139 0 0 Z M-6.4375 12.375 C-7.2625 13.98375 -8.0875 15.5925 -8.9375 17.25 C-9.4015625 18.15492187 -9.865625 19.05984375 -10.34375 19.9921875 C-11.57655589 22.24096859 -11.57655589 22.24096859 -11.4375 24.375 C-3.8475 24.375 3.7425 24.375 11.5625 24.375 C10.0775 19.92 10.0775 19.92 8.5625 15.375 C8.2325 14.385 7.9025 13.395 7.5625 12.375 C2.9425 12.375 -1.6775 12.375 -6.4375 12.375 Z " fill="#000000" transform="translate(222.4375,65.625)"/>
<path d="M0 0 C1.19302734 -0.02835937 2.38605469 -0.05671875 3.61523438 -0.0859375 C5.33516602 -0.08980469 5.33516602 -0.08980469 7.08984375 -0.09375 C8.13906006 -0.10083984 9.18827637 -0.10792969 10.26928711 -0.11523438 C13.0625 0.5 13.0625 0.5 15.28833008 2.71899414 C18.06354923 7.06914157 19.88592101 11.66498103 21.8125 16.4375 C22.42931641 17.90219727 22.42931641 17.90219727 23.05859375 19.39648438 C26.83937987 28.66003841 26.83937987 28.66003841 26.0625 33.5 C23.58684965 35.97565035 22.86944267 35.75234962 19.4609375 35.75878906 C18.50654785 35.76509338 17.5521582 35.77139771 16.56884766 35.77789307 C15.53550293 35.7738446 14.5021582 35.76979614 13.4375 35.765625 C12.37966309 35.76753845 11.32182617 35.7694519 10.23193359 35.77142334 C7.99251061 35.77278602 5.75307974 35.76908382 3.51367188 35.76074219 C0.07664323 35.75004402 -3.3598627 35.76063488 -6.796875 35.7734375 C-8.96875116 35.77211592 -11.14062699 35.76955356 -13.3125 35.765625 C-14.34584473 35.76967346 -15.37918945 35.77372192 -16.44384766 35.77789307 C-17.3982373 35.77158875 -18.35262695 35.76528442 -19.3359375 35.75878906 C-20.17817871 35.75719788 -21.02041992 35.75560669 -21.88818359 35.75396729 C-23.9375 35.5 -23.9375 35.5 -25.9375 33.5 C-26.96298498 26.53799187 -23.94669781 20.98991587 -21.125 14.75 C-20.67318359 13.70972656 -20.22136719 12.66945313 -19.75585938 11.59765625 C-14.82580666 0.47085114 -12.07955741 -0.02601951 0 0 Z M-6.9375 12.5 C-9.4125 18.44 -9.4125 18.44 -11.9375 24.5 C-4.3475 24.5 3.2425 24.5 11.0625 24.5 C10.37262866 21.05064331 9.87848989 18.74415149 8.5 15.6875 C8.025625 14.635625 7.55125 13.58375 7.0625 12.5 C2.4425 12.5 -2.1775 12.5 -6.9375 12.5 Z " fill="#000000" transform="translate(289.9375,65.5)"/>
<path d="M0 0 C1.19302734 -0.01998047 2.38605469 -0.03996094 3.61523438 -0.06054688 C4.76185547 -0.05990234 5.90847656 -0.05925781 7.08984375 -0.05859375 C8.13906006 -0.06044678 9.18827637 -0.0622998 10.26928711 -0.06420898 C13.80564329 0.57098129 14.87529306 1.62817159 17.0625 4.4375 C18.94480927 7.91101388 20.33940815 11.58646375 21.8125 15.25 C22.22371094 16.22259766 22.63492188 17.19519531 23.05859375 18.19726562 C25.20423462 23.46157055 26.82378833 27.73545039 26.0625 33.4375 C23.58684965 35.91315035 22.86944267 35.68984962 19.4609375 35.69628906 C18.50654785 35.70259338 17.5521582 35.70889771 16.56884766 35.71539307 C15.53550293 35.7113446 14.5021582 35.70729614 13.4375 35.703125 C12.37966309 35.70503845 11.32182617 35.7069519 10.23193359 35.70892334 C7.99251061 35.71028602 5.75307974 35.70658382 3.51367188 35.69824219 C0.07664323 35.68754402 -3.3598627 35.69813488 -6.796875 35.7109375 C-8.96875116 35.70961592 -11.14062699 35.70705356 -13.3125 35.703125 C-14.34584473 35.70717346 -15.37918945 35.71122192 -16.44384766 35.71539307 C-17.3982373 35.70908875 -18.35262695 35.70278442 -19.3359375 35.69628906 C-20.17817871 35.69469788 -21.02041992 35.69310669 -21.88818359 35.69146729 C-23.9375 35.4375 -23.9375 35.4375 -25.9375 33.4375 C-25.74772914 26.06563196 -23.54275588 20.23978215 -20.5625 13.5625 C-20.16289062 12.62664062 -19.76328125 11.69078125 -19.3515625 10.7265625 C-14.69123739 0.05687079 -11.4840542 -0.06802617 0 0 Z M-6.9375 12.4375 C-7.61104499 13.87179001 -8.27609701 15.31007057 -8.9375 16.75 C-9.30875 17.55050781 -9.68 18.35101563 -10.0625 19.17578125 C-11.11790667 21.49963959 -11.11790667 21.49963959 -10.9375 24.4375 C-3.3475 24.4375 4.2425 24.4375 12.0625 24.4375 C11.423125 22.643125 10.78375 20.84875 10.125 19 C9.76535156 17.99066406 9.40570313 16.98132813 9.03515625 15.94140625 C8.29372361 13.53436255 8.29372361 13.53436255 7.0625 12.4375 C4.70936445 12.36478259 2.35416332 12.35379132 0 12.375 C-1.29035156 12.38402344 -2.58070313 12.39304687 -3.91015625 12.40234375 C-4.90917969 12.41394531 -5.90820312 12.42554687 -6.9375 12.4375 Z " fill="#000000" transform="translate(154.9375,65.5625)"/>
<path d="M0 0 C1.19302734 -0.02835937 2.38605469 -0.05671875 3.61523438 -0.0859375 C5.33516602 -0.08980469 5.33516602 -0.08980469 7.08984375 -0.09375 C8.13906006 -0.10083984 9.18827637 -0.10792969 10.26928711 -0.11523438 C13.0625 0.5 13.0625 0.5 15.28833008 2.71899414 C18.06354923 7.06914157 19.88592101 11.66498103 21.8125 16.4375 C22.42931641 17.90219727 22.42931641 17.90219727 23.05859375 19.39648438 C26.83937987 28.66003841 26.83937987 28.66003841 26.0625 33.5 C23.58684965 35.97565035 22.86944267 35.75234962 19.4609375 35.75878906 C18.50654785 35.76509338 17.5521582 35.77139771 16.56884766 35.77789307 C15.53550293 35.7738446 14.5021582 35.76979614 13.4375 35.765625 C12.37966309 35.76753845 11.32182617 35.7694519 10.23193359 35.77142334 C7.99251061 35.77278602 5.75307974 35.76908382 3.51367188 35.76074219 C0.07664323 35.75004402 -3.3598627 35.76063488 -6.796875 35.7734375 C-8.96875116 35.77211592 -11.14062699 35.76955356 -13.3125 35.765625 C-14.34584473 35.76967346 -15.37918945 35.77372192 -16.44384766 35.77789307 C-17.3982373 35.77158875 -18.35262695 35.76528442 -19.3359375 35.75878906 C-20.17817871 35.75719788 -21.02041992 35.75560669 -21.88818359 35.75396729 C-23.9375 35.5 -23.9375 35.5 -25.9375 33.5 C-26.96298498 26.53799187 -23.94669781 20.98991587 -21.125 14.75 C-20.67318359 13.70972656 -20.22136719 12.66945313 -19.75585938 11.59765625 C-14.82580666 0.47085114 -12.07955741 -0.02601951 0 0 Z M-6.9375 12.5 C-9.4125 18.44 -9.4125 18.44 -11.9375 24.5 C-4.3475 24.5 3.2425 24.5 11.0625 24.5 C10.37262866 21.05064331 9.87848989 18.74415149 8.5 15.6875 C8.025625 14.635625 7.55125 13.58375 7.0625 12.5 C2.4425 12.5 -2.1775 12.5 -6.9375 12.5 Z " fill="#000000" transform="translate(87.9375,65.5)"/>
<path d="M0 0 C4.74503562 1.36433472 8.04978434 4.00714344 11.9453125 6.97265625 C13.53816688 8.15745502 15.13192426 9.34104073 16.7265625 10.5234375 C17.5103125 11.10818848 18.2940625 11.69293945 19.1015625 12.29541016 C23.33951605 15.41128568 27.7108307 18.3294625 32.07421875 21.265625 C34.8810962 23.34109953 35.22473456 24.2929211 36.0078125 27.66015625 C34.97318656 33.14367372 30.81721955 34.93829469 26.3828125 37.97265625 C25.00225258 38.94948997 23.62347901 39.92885118 22.24609375 40.91015625 C18.64145306 43.47392888 15.02540123 46.02050779 11.39648438 48.54980469 C10.05822532 49.49541257 8.73113967 50.45704266 7.41601562 51.43457031 C2.71144899 54.92209679 2.71144899 54.92209679 -0.8671875 55.47265625 C-3.6171875 54.97265625 -3.6171875 54.97265625 -5.5546875 53.91015625 C-6.88256389 51.4887346 -6.93057663 49.62027366 -6.48901367 46.91381836 C-4.5270935 42.54551052 0.29550113 40.27030359 4.1953125 37.78515625 C6.01659322 36.58677661 7.83568387 35.38506051 9.65234375 34.1796875 C10.46292236 33.65866455 11.27350098 33.1376416 12.10864258 32.60083008 C14.46150974 30.91631359 16.3959804 29.07048456 18.3828125 26.97265625 C17.83343018 26.59979492 17.28404785 26.22693359 16.71801758 25.84277344 C14.20900655 24.13818018 11.70214696 22.43044865 9.1953125 20.72265625 C8.33099609 20.13613281 7.46667969 19.54960937 6.57617188 18.9453125 C-5.3104552 10.83872392 -5.3104552 10.83872392 -6.6796875 6.97265625 C-6.6171875 3.97265625 -6.6171875 3.97265625 -5.0546875 1.53515625 C-2.6171875 -0.02734375 -2.6171875 -0.02734375 0 0 Z " fill="#000000" transform="translate(284.6171875,394.02734375)"/>
<path d="M0 0 C2.7578125 0.921875 2.7578125 0.921875 4.7578125 3.921875 C4.82586 7.01803607 4.59875903 9.03961029 2.40625 11.33984375 C0.57711902 12.79730199 -1.30015989 14.11871828 -3.2421875 15.421875 C-3.91902588 15.8960083 -4.59586426 16.3701416 -5.29321289 16.85864258 C-7.26387899 18.23220837 -9.24951363 19.5805031 -11.2421875 20.921875 C-12.23089844 21.59605469 -13.21960938 22.27023437 -14.23828125 22.96484375 C-16.22724441 24.30460934 -18.22449176 25.6259566 -20.2421875 26.921875 C-16.57816536 30.97568672 -12.21881361 33.85131991 -7.7421875 36.921875 C1.94658226 43.56748278 1.94658226 43.56748278 4.7578125 46.921875 C5.25412607 49.82885447 5.19104399 51.22389093 3.6328125 53.734375 C0.76136101 55.55296095 -0.85715564 55.35952786 -4.2421875 54.921875 C-7.29801736 53.25697195 -9.99059009 51.1685177 -12.7421875 49.046875 C-14.33427579 47.85628978 -15.92672844 46.66619165 -17.51953125 45.4765625 C-18.30956543 44.8794043 -19.09959961 44.28224609 -19.91357422 43.66699219 C-23.33241827 41.10483059 -26.81552497 38.63692416 -30.3046875 36.171875 C-36.09764525 32.06641725 -36.09764525 32.06641725 -37.2421875 30.921875 C-37.6171875 28.171875 -37.6171875 28.171875 -37.2421875 24.921875 C-33.59892741 20.71065421 -29.33424822 17.73472098 -24.7421875 14.671875 C-23.31713128 13.71439997 -21.8926607 12.75605277 -20.46875 11.796875 C-19.76008789 11.31992187 -19.05142578 10.84296875 -18.32128906 10.3515625 C-16.3529361 8.99803092 -14.43010786 7.60025467 -12.515625 6.171875 C-11.94005859 5.74938477 -11.36449219 5.32689453 -10.77148438 4.89160156 C-9.20978074 3.74014475 -7.65919778 2.57364898 -6.109375 1.40625 C-3.2421875 -0.078125 -3.2421875 -0.078125 0 0 Z " fill="#000000" transform="translate(229.2421875,394.078125)"/>
<path d="M0 0 C1.67211914 2.58227539 1.67211914 2.58227539 2.97265625 6.03515625 C3.2148439 6.65713394 3.45703156 7.27911163 3.70655823 7.91993713 C4.22353059 9.25342444 4.7301644 10.5909576 5.22735596 11.9319458 C5.99275204 13.98060016 6.79552813 16.01011025 7.61279297 18.03857422 C8.98807721 21.46074541 10.32097114 24.89720608 11.63452148 28.34350586 C12.17564302 29.75463369 12.72364962 31.16313821 13.27807617 32.5690918 C14.09549862 34.64328041 14.8916214 36.72457602 15.68359375 38.80859375 C16.15337646 40.02345459 16.62315918 41.23831543 17.10717773 42.48999023 C18.10824031 46.4255321 17.97067069 49.07452521 17 53 C14.17116253 54.41441874 12.12623255 54.31900332 9 54 C6.73679338 51.48182517 5.40246953 48.92516812 4.19067383 45.78564453 C3.87056839 44.96444122 3.55046295 44.14323792 3.22065735 43.29714966 C2.88616074 42.4179184 2.55166412 41.53868713 2.20703125 40.6328125 C1.85613937 39.72046844 1.5052475 38.80812439 1.14372253 37.86813354 C0.40510097 35.94118101 -0.33015057 34.01293377 -1.06225586 32.08349609 C-2.18250038 29.13814501 -3.32007789 26.19989574 -4.45898438 23.26171875 C-5.17554564 21.3858237 -5.89107502 19.50953408 -6.60546875 17.6328125 C-6.94603806 16.7576297 -7.28660736 15.8824469 -7.63749695 14.98074341 C-9.30330814 10.54335051 -10.6002155 6.81947359 -10 2 C-6.95173439 -1.63447054 -4.33473197 -1.34665534 0 0 Z " fill="#000000" transform="translate(252,395)"/>
</svg>
